<svg xmlns="http://www.w3.org/2000/svg" viewBox="0 0 200 100"><path d="M72.87 48c0 12-15.18 21.7-33.91 21.7S5 59.95 5 48s15.23-21.73 34-21.73S72.87 36 72.87 48M27.7 41.12s-.36.38-.14.67c.54.68 2.19 1.08 3.86.7a11.2 11.2 0 0 0 3.51-2.22 14 14 0 0 1 4-2.55 4.58 4.58 0 0 1 2.92-.08 9 9 0 0 1 2.66 1.55c2.32 1.74 11.65 9.89 13.26 11.3a80.5 80.5 0 0 1 14.91-4.8c-.68-4.18-3.22-8-7.08-11.14-5.38 2.26-11.94 3.44-18.37.3a17.77 17.77 0 0 0-6.94-1.58c-5.1.12-7.3 2.32-9.64 4.66l-3 3.19M57.4 51.37c-.11-.1-11-9.6-13.43-11.45a6 6 0 0 0-3-1.45 4.16 4.16 0 0 0-1.45.14 13.12 13.12 0 0 0-4 2.37 11.32 11.32 0 0 1-3.88 2.4 6.27 6.27 0 0 1-4.27-.64 1.89 1.89 0 0 1-.71-.78 1.31 1.31 0 0 1 .34-1.42l3-3.24 1.06-1a19.46 19.46 0 0 0-2.73.61 11.9 11.9 0 0 1-3.19.6 30.19 30.19 0 0 1-3.25-.51 48.59 48.59 0 0 1-8.65-3.13C9 37 6.12 41 5.3 45.34c.61.16 1.6.46 2 .55C17 48 20 50.24 20.51 50.7a3.19 3.19 0 0 1 5 .29 3.65 3.65 0 0 1 2.3-.81 4.3 4.3 0 0 1 1.38.24 3.17 3.17 0 0 1 1.94 1.75 3.22 3.22 0 0 1 1.34-.28 4 4 0 0 1 1.6.35A3.43 3.43 0 0 1 36 56.08h.38a3.82 3.82 0 0 1 3.37 5.63 6.06 6.06 0 0 0 3.32.89 2.12 2.12 0 0 0 1.55-.68c.1-.14.2-.29.1-.41l-2.72-3s-.45-.42-.3-.59.43.07.63.24c1.38 1.16 3.08 2.9 3.08 2.9s.14.24.77.35a2.83 2.83 0 0 0 2.15-.5 3.25 3.25 0 0 0 .47-.48 1.45 1.45 0 0 0-.08-1.79l-3.18-3.57s-.45-.42-.3-.59.43.07.63.24c1 .84 2.43 2.27 3.79 3.6a2.59 2.59 0 0 0 3-.11 2.19 2.19 0 0 0 1.13-2 2.27 2.27 0 0 0-.67-1.33l-4.34-4.36s-.46-.39-.3-.59.43.07.63.24c1.38 1.16 5.12 4.59 5.12 4.59a2.63 2.63 0 0 0 2.94-.06 2 2 0 0 0 1-1.56 2.3 2.3 0 0 0-.73-1.77m-21 5.53a9.64 9.64 0 0 0-1.5.33c-.05 0 0-.31.1-.46S35.9 54 33.74 53a2.54 2.54 0 0 0-3 .45c-.09.09-.13.09-.14 0a2.38 2.38 0 0 0-1.67-2.21 3.27 3.27 0 0 0-3.68 1.31 2.36 2.36 0 1 0-.7 2v.08a3.11 3.11 0 0 0 1.94 3.58 2.32 2.32 0 0 0 2.28-.35c.19-.13.22-.08.19.1a2.22 2.22 0 0 0 1.66 2.38 2.11 2.11 0 0 0 2.47-.46c.21-.19.27-.16.28.14a3 3 0 1 0 3-3.11m84.37 4.18a5.82 5.82 0 0 0-.88-3.46 2.92 2.92 0 0 0-2.51-1.21 2.87 2.87 0 0 0-2.45 1.21 5.84 5.84 0 0 0-.81 3.46 5.17 5.17 0 0 0 .88 3.28 2.91 2.91 0 0 0 2.51 1.21 2.79 2.79 0 0 0 2.39-1.21 5.47 5.47 0 0 0 .88-3.28m-6.66 10.74a1.87 1.87 0 0 1-.59 1.38 1.92 1.92 0 0 1-1.4.58h-2V60a6.36 6.36 0 0 1 2.39-5.5 8 8 0 0 1 5.2-1.5 7 7 0 0 1 5.2 2.15 8.48 8.48 0 0 1 1.86 5.74 9.29 9.29 0 0 1-1.75 5.89 5.5 5.5 0 0 1-4.5 2.22 6 6 0 0 1-2.57-.52 4.36 4.36 0 0 1-1.87-1.79v5.16m30.46-10.74q0 4 2.29 4.4a3.13 3.13 0 0 0 3.38-1.07 4.28 4.28 0 0 0 .74-2 8.4 8.4 0 0 0 0-2.68 5.33 5.33 0 0 0-.93-2.36 2.52 2.52 0 0 0-2.18-1 2.64 2.64 0 0 0-2.64 1.44 7.49 7.49 0 0 0-.69 3.28m6.54 6.62v-1a4.39 4.39 0 0 1-2.78 2 5.68 5.68 0 0 1-3.47-.29 6.44 6.44 0 0 1-3-2.56 8.84 8.84 0 0 1-1.16-4.89 9.52 9.52 0 0 1 1.63-5.78c1.09-1.48 2.84-2.15 5.25-2.22a7.28 7.28 0 0 1 5.1 1.5c1.48 1.09 2.4 2.8 2.4 5.5v8.12c0 2.58-1.8 7.37-7.45 7-3.51-.25-5.45-1.69-6.54-4.95h4.19a3.2 3.2 0 0 0 3.29 1.47 3.14 3.14 0 0 0 1.72-1.12 4.73 4.73 0 0 0 .89-2.77m-15.84-5a3.17 3.17 0 0 1-1.13 2.74 4.13 4.13 0 0 1-2.39.75 2.17 2.17 0 0 1-1.39-.45 1.76 1.76 0 0 1-.57-1.47 1.81 1.81 0 0 1 .93-1.68 5.88 5.88 0 0 1 1.79-.64l.9-.17a6.42 6.42 0 0 0 1.06-.27 4 4 0 0 0 .77-.38zm2-8.62a9.69 9.69 0 0 0-4.43-1q-3.84 0-5.41 2a5.81 5.81 0 0 0-1.12 3.26h3.82a2.84 2.84 0 0 1 .56-1.39 2.52 2.52 0 0 1 2-.69 4.11 4.11 0 0 1 1.92.35 1.33 1.33 0 0 1 .65 1.28 1.19 1.19 0 0 1-.85 1.12 6.26 6.26 0 0 1-1.58.35l-1.35.17a9.67 9.67 0 0 0-3.49 1 4.3 4.3 0 0 0-2.17 4 4.16 4.16 0 0 0 1.35 3.32 5.34 5.34 0 0 0 3.39 1.1c8.63.39 8.54-4.55 8.62-5.58v-5.64a3.78 3.78 0 0 0-1.94-3.72zm29.59 10.4a3.49 3.49 0 0 1-5.32 0 5.66 5.66 0 0 1-.93-3.49 5.63 5.63 0 0 1 .93-3.49 3.5 3.5 0 0 1 5.32 0 5.67 5.67 0 0 1 .93 3.49 5.7 5.7 0 0 1-.93 3.49m3.15-9.22a8.22 8.22 0 0 0-11.6 0 9.36 9.36 0 0 0 0 11.33 8.31 8.31 0 0 0 11.6 0 9.37 9.37 0 0 0 0-11.33" fill="#2491c4"/><path d="M74.23 48c0-12.74-15.8-23.1-35.23-23.1S3.68 35.26 3.68 48v1.35c0 13.48 13.8 24.4 35.27 24.4s35.28-10.92 35.28-24.4V48m-1.35 0c0 12-15.18 21.7-33.91 21.7S5 59.95 5 48s15.23-21.73 34-21.73S72.87 36 72.87 48M36.35 62.64A2.74 2.74 0 0 1 33.59 60c0-.13 0-.46-.3-.46a.52.52 0 0 0-.34.18 1.94 1.94 0 0 1-1.36.61 2.38 2.38 0 0 1-.89-.19c-1.57-.64-1.6-1.72-1.53-2.15a.39.39 0 0 0-.06-.33l-.1-.09h-.1a.48.48 0 0 0-.27.11 2.3 2.3 0 0 1-1.34.48 2.07 2.07 0 0 1-.75-.15 2.89 2.89 0 0 1-1.81-3.35.28.28 0 0 0-.09-.27l-.15-.12-.14.13a2.15 2.15 0 1 1 .64-1.83l.07.58.32-.49a3 3 0 0 1 3.44-1.22 2.18 2.18 0 0 1 1.52 2c0 .28.22.29.26.29a.35.35 0 0 0 .25-.13 2.17 2.17 0 0 1 1.61-.6 3.06 3.06 0 0 1 1.19.27c2 .87 1.11 3.44 1.1 3.47-.17.43-.18.62 0 .72h.14a1.44 1.44 0 0 0 .39-.1 3.47 3.47 0 0 1 1.08-.24 2.76 2.76 0 1 1 0 5.53zm21.47-12.41C54.47 47.31 46.74 40.59 44.65 39a9.21 9.21 0 0 0-2.73-1.59 4.53 4.53 0 0 0-1.34-.21 5.65 5.65 0 0 0-1.7.29 14 14 0 0 0-4 2.54l-.07.05a11.06 11.06 0 0 1-3.42 2.18 5.77 5.77 0 0 1-1.27.14 3.25 3.25 0 0 1-2.38-.77c-.06-.08 0-.2.12-.37l2.94-3.17c2.31-2.31 4.48-4.48 9.5-4.6h.25a17.77 17.77 0 0 1 6.6 1.51 20.4 20.4 0 0 0 9 2.15A23.45 23.45 0 0 0 66 34.83c-.38-.32-.78-.64-1.19-.94a21.69 21.69 0 0 1-8.66 2 19.1 19.1 0 0 1-8.4-2 18.92 18.92 0 0 0-7.17-1.69h-.28a12.45 12.45 0 0 0-8.2 2.8 16.17 16.17 0 0 0-4.08.74 11 11 0 0 1-2.87.55h-1.09a56 56 0 0 1-10.34-2.86c-.42.3-.83.61-1.22.92a51.08 51.08 0 0 0 11.2 3.25c.46 0 1 .08 1.44.08a12.26 12.26 0 0 0 3.24-.6c.62-.18 1.31-.37 2-.51l-.58.58-3 3.24a1.5 1.5 0 0 0-.35 1.61 2.1 2.1 0 0 0 .79.87 6.23 6.23 0 0 0 3.17.81 5.77 5.77 0 0 0 1.27-.13 11.46 11.46 0 0 0 4-2.44 13.18 13.18 0 0 1 3.89-2.33 4.44 4.44 0 0 1 1.08-.15h.28a5.85 5.85 0 0 1 2.95 1.41c2.45 1.84 13.32 11.35 13.42 11.44a2.09 2.09 0 0 1 .65 1.6 1.74 1.74 0 0 1-.95 1.44 2.64 2.64 0 0 1-1.43.44 2.34 2.34 0 0 1-1.26-.36s-3.71-3.45-5.08-4.6a1.15 1.15 0 0 0-.64-.34.35.35 0 0 0-.28.13c-.22.27 0 .63.31.88L53 55a2.06 2.06 0 0 1 .6 1.18 2 2 0 0 1-1 1.8 2.8 2.8 0 0 1-1.54.51 2.24 2.24 0 0 1-1.24-.38l-.62-.61c-1.14-1.12-2.32-2.28-3.18-3a1.15 1.15 0 0 0-.65-.34.37.37 0 0 0-.27.12c-.1.11-.17.31.08.63a2.16 2.16 0 0 0 .22.24l3.17 3.56a1.22 1.22 0 0 1 .07 1.52l-.11.14a3.34 3.34 0 0 1-.29.28 2.54 2.54 0 0 1-1.55.49 2.43 2.43 0 0 1-.43 0 1.08 1.08 0 0 1-.62-.26c-.17-.18-1.77-1.81-3.1-2.92a1.09 1.09 0 0 0-.62-.33.38.38 0 0 0-.29.13c-.26.29.13.72.3.87l2.71 3a.63.63 0 0 1-.1.18c-.1.13-.42.46-1.41.59h-.36a6.19 6.19 0 0 1-2.77-.8 4 4 0 0 0-3.65-5.76h-.15a3.58 3.58 0 0 0-2-3.79 4.25 4.25 0 0 0-1.69-.37 3.43 3.43 0 0 0-1.24.22 3.39 3.39 0 0 0-2-1.68 4.43 4.43 0 0 0-1.46-.22 3.82 3.82 0 0 0-2.26.72 3.4 3.4 0 0 0-5.07-.29c-.84-.64-4.18-2.77-13.13-4.8-.43-.1-1.43-.38-2-.56a14.37 14.37 0 0 0-.23 1.47l2 .47c9.14 2 12.15 4.14 12.66 4.54a3.43 3.43 0 0 0 3.79 4.68 4 4 0 0 0 2.58 3 3.4 3.4 0 0 0 1.22.24 3.13 3.13 0 0 0 .78-.1 4 4 0 0 0 3.47 2.27 3 3 0 0 0 1-.19 4 4 0 0 0 6.62 1.28 7.61 7.61 0 0 0 3.42 1 4.37 4.37 0 0 0 .52 0 3.13 3.13 0 0 0 2.32-1.13 1.71 1.71 0 0 0 .14-.23 3.91 3.91 0 0 0 1.09.17 3.69 3.69 0 0 0 2.21-.79 3 3 0 0 0 1.3-1.89 3.64 3.64 0 0 0 .74.08 4.1 4.1 0 0 0 2.27-.72 3.27 3.27 0 0 0 1.63-2.92 3.64 3.64 0 0 0 .75.08 3.92 3.92 0 0 0 2.13-.65 3.11 3.11 0 0 0 1.48-2.4 3.24 3.24 0 0 0-.47-1.94 87.86 87.86 0 0 1 14.09-4.41 14.37 14.37 0 0 0-.2-1.46 80.85 80.85 0 0 0-14.84 4.71zm133.44-7.81a3.49 3.49 0 0 1-5.32 0 5.68 5.68 0 0 1-.93-3.5 5.65 5.65 0 0 1 .93-3.49 3.5 3.5 0 0 1 5.32 0 5.69 5.69 0 0 1 .93 3.49 5.72 5.72 0 0 1-.93 3.51zm3.15-9.15a8.22 8.22 0 0 0-11.59 0 8.78 8.78 0 0 0-1.91 5.65 8.74 8.74 0 0 0 1.91 5.68q1.91 2.35 5.8 2.36t5.8-2.36a8.74 8.74 0 0 0 1.91-5.68 8.78 8.78 0 0 0-1.92-5.64zm-34.54 7.29a3.17 3.17 0 0 1-1.13 2.73 4.13 4.13 0 0 1-2.39.75 2.18 2.18 0 0 1-1.35-.44 1.76 1.76 0 0 1-.57-1.47 1.81 1.81 0 0 1 .93-1.68 5.9 5.9 0 0 1 1.82-.54l.9-.17a6.62 6.62 0 0 0 1.06-.27 4 4 0 0 0 .77-.38zm2-8.62a9.66 9.66 0 0 0-4.43-1q-3.83 0-5.41 2a5.81 5.81 0 0 0-1.12 3.26h3.82a2.86 2.86 0 0 1 .56-1.39 2.52 2.52 0 0 1 2-.69 4.11 4.11 0 0 1 1.92.35 1.33 1.33 0 0 1 .65 1.28 1.19 1.19 0 0 1-.86 1.15 6.24 6.24 0 0 1-1.58.35l-1.35.17a9.64 9.64 0 0 0-3.5 1 4.31 4.31 0 0 0-2.17 4 4.17 4.17 0 0 0 1.35 3.32 5.35 5.35 0 0 0 3.41 1.17c8.64.39 8.54-4.55 8.62-5.58v-5.67a3.79 3.79 0 0 0-1.91-3.72zm-19.69 2.4a2.57 2.57 0 0 1 2.18.91 3.39 3.39 0 0 1 .6 1.52h4.26q-.35-3.22-2.25-4.5a8.68 8.68 0 0 0-4.9-1.27 7.15 7.15 0 0 0-5.52 2.16 8.55 8.55 0 0 0-2 6 8.42 8.42 0 0 0 1.81 5.6Q138.17 47 142 47a6.81 6.81 0 0 0 5.8-2.59 6.39 6.39 0 0 0 1.37-3.4h-4.25a3.58 3.58 0 0 1-.75 1.94 2.55 2.55 0 0 1-2.08.75 2.77 2.77 0 0 1-2.81-1.88 7.21 7.21 0 0 1-.41-2.66 7.87 7.87 0 0 1 .41-2.79 2.86 2.86 0 0 1 2.88-2M133.4 31c-8.75 0-8.23 7.75-8.23 7.75v7.87h4v-7.38a6.07 6.07 0 0 1 .46-2.69A3.27 3.27 0 0 1 132.8 35h.47l.67.06V31h-.53m-19.92 4.11a3.13 3.13 0 0 1 2.36-.86 3.45 3.45 0 0 1 2.34.81 3.29 3.29 0 0 1 1 2.38h-6.79a4.1 4.1 0 0 1 1.08-2.32zm5.34 7.39a2.9 2.9 0 0 1-.54.6 3.39 3.39 0 0 1-2.22.6 3.77 3.77 0 0 1-2.11-.51 3.58 3.58 0 0 1-1.61-3.15h11a20 20 0 0 0-.13-3 7.43 7.43 0 0 0-1.2-3.12 6.16 6.16 0 0 0-2.61-2.23 8.62 8.62 0 0 0-3.54-.7 7.28 7.28 0 0 0-5.4 2.09 8.17 8.17 0 0 0-2.08 6q0 4.18 2.3 6A8.22 8.22 0 0 0 116 47a7.33 7.33 0 0 0 5.67-2.2 5.35 5.35 0 0 0 1.33-2.29zm-12.05 4.11h-3.63v-9.12a2.55 2.55 0 0 0-2.67-2.82 2.67 2.67 0 0 0-2.75 2.82v9.13h-3.64v-9.13a2.53 2.53 0 0 0-2.64-2.82 2.66 2.66 0 0 0-2.75 2.82v9.13h-3.63v-9c0-3.77 2.5-6.62 6.38-6.62A5.59 5.59 0 0 1 96 33.06a5.78 5.78 0 0 1 4.51-2.1c4 0 6.3 2.74 6.3 6.62v9M175 42.46a2.91 2.91 0 0 1-2.55 1.25 2.78 2.78 0 0 1-2.5-1.25 6.4 6.4 0 0 1-.82-3.44 6.06 6.06 0 0 1 .81-3.25 2.77 2.77 0 0 1 2.54-1.31 3 3 0 0 1 2 .72 5.19 5.19 0 0 1 1.4 4.06 5.5 5.5 0 0 1-.88 3.22zm4.76-16.22s-4-.43-4 2.79v4.25a4.77 4.77 0 0 0-1.76-1.67 4.86 4.86 0 0 0-2.44-.6 5.79 5.79 0 0 0-4.75 2.21A9.75 9.75 0 0 0 165 39.4a8.22 8.22 0 0 0 1.81 5.49c1.2 1.42 3.56 2 5.66 2 7.31 0 7.23-6.27 7.23-6.27z" fill="#2a3468"/></svg>
